<svg xmlns="http://www.w3.org/2000/svg" version="1.1" xmlns:xlink="http://www.w3.org/1999/xlink" xmlns:svgjs="http://svgjs.dev/svgjs" width="2000" height="1000" preserveAspectRatio="none" viewBox="0 0 2000 1000"><g mask="url(&quot;#SvgjsMask1068&quot;)" fill="none"><path d="M1913.84 901.83 a74.75 74.75 0 1 0 149.5 0 a74.75 74.75 0 1 0 -149.5 0z" stroke="rgba(0, 32, 96, 1)"></path><path d="M225.08 509.92 a25.3 25.3 0 1 0 50.6 0 a25.3 25.3 0 1 0 -50.6 0z" stroke="rgba(0, 167, 206, 1)"></path><path d="M434.49 941.85L479.4 941.85L479.4 971.24L434.49 971.24z" fill="#d3b714"></path><path d="M192.86 829.55L224.63 829.55L224.63 861.32L192.86 861.32z" fill="rgba(0, 32, 96, 1)"></path><path d="M1344.48 99.74L1426.13 99.74L1426.13 181.39L1344.48 181.39z" fill="rgba(0, 167, 206, 1)"></path><path d="M1633.3 785.6L1676.45 785.6L1676.45 875.57L1633.3 875.57z" fill="#d3b714"></path><path d="M1575.73 411.22 a88.88 88.88 0 1 0 177.76 0 a88.88 88.88 0 1 0 -177.76 0z" stroke="rgba(0, 167, 206, 1)"></path><path d="M1082.32 577.56a34.41 34.41 0 1 0 68.82-0.86z" fill="rgba(0, 167, 206, 1)"></path><path d="M893.06 878.37a27.86 27.86 0 1 0-39.16-39.63z" stroke="rgba(0, 167, 206, 1)"></path><path d="M94.31 917.78 a40.83 40.83 0 1 0 81.66 0 a40.83 40.83 0 1 0 -81.66 0z" fill="rgba(0, 167, 206, 1)"></path><path d="M472.01 284.67L571.4 284.67L571.4 384.06L472.01 384.06z" stroke="rgba(0, 32, 96, 1)"></path><path d="M110.02 275.96L198.18 275.96L198.18 289.55L110.02 289.55z" stroke="rgba(0, 32, 96, 1)"></path><path d="M312.32 329.28a88.65 88.65 0 1 0 71.78-162.12z" fill="rgba(0, 167, 206, 1)"></path><path d="M715.93 764.69L747.53 764.69L747.53 796.29L715.93 796.29z" stroke="rgba(0, 167, 206, 1)"></path><path d="M1660.7 808.6L1664.61 808.6L1664.61 851.89L1660.7 851.89z" fill="rgba(0, 167, 206, 1)"></path><path d="M82.65 539.47L113 539.47L113 569.82L82.65 569.82z" stroke="#d3b714"></path><path d="M1406.21 156.57 a22.7 22.7 0 1 0 45.4 0 a22.7 22.7 0 1 0 -45.4 0z" fill="rgba(0, 32, 96, 1)"></path><path d="M947.58 462.59 a30.02 30.02 0 1 0 60.04 0 a30.02 30.02 0 1 0 -60.04 0z" fill="rgba(0, 32, 96, 1)"></path><path d="M1089.23 319.77a31.54 31.54 0 1 0 63.02 2.74z" fill="rgba(0, 167, 206, 1)"></path><path d="M577.89 333.39a23.23 23.23 0 1 0 19.78-42.04z" stroke="#d3b714"></path><path d="M39.93 631.41L115.67 631.41L115.67 633.32L39.93 633.32z" stroke="#d3b714"></path><path d="M965.42 810.24a29.94 29.94 0 1 0-59.24 8.76z" stroke="#d3b714"></path><path d="M848.24 832.51a56.55 56.55 0 1 0 82.31 77.57z" fill="rgba(0, 167, 206, 1)"></path><path d="M1676.53 75.07 a43.05 43.05 0 1 0 86.1 0 a43.05 43.05 0 1 0 -86.1 0z" fill="#d3b714"></path><path d="M318.71 611.3 a35.65 35.65 0 1 0 71.3 0 a35.65 35.65 0 1 0 -71.3 0z" stroke="#d3b714"></path></g><defs><mask id="SvgjsMask1068"><rect width="2000" height="1000" fill="#ffffff"></rect></mask></defs></svg>